<svg width="30" height="30" viewBox="0 0 30 30" fill="none" xmlns="http://www.w3.org/2000/svg">
<path d="M24.375 0.9375H5.625C3.03617 0.9375 0.9375 3.03617 0.9375 5.625V24.375C0.9375 26.9638 3.03617 29.0625 5.625 29.0625H24.375C26.9638 29.0625 29.0625 26.9638 29.0625 24.375V5.625C29.0625 3.03617 26.9638 0.9375 24.375 0.9375Z" stroke="#0C9869" stroke-width="0.9375"/>
<path fill-rule="evenodd" clip-rule="evenodd" d="M10.1625 20.9325H8.6625V16.3425L4.6875 10.3125H6.5175L9.4575 15.1125L12.4125 10.3125H14.1375L10.1625 16.3425V20.9325V20.9325ZM22.8675 18.8025H22.8975V10.3125H24.3825V20.9325H22.5075L16.8975 12.2625H16.8675V20.9325H15.3825V10.3125H17.3175L22.8675 18.8025V18.8025Z" fill="#0C9869"/>
</svg>
