<svg width="30" height="30" viewBox="0 0 30 30" fill="none" xmlns="http://www.w3.org/2000/svg">
<g clip-path="url(#clip0)">
<path d="M24.9331 3.12594C25.1632 3.12594 25.3567 2.94687 25.3713 2.71414L25.4894 0.840077C25.5046 0.59785 25.3206 0.389139 25.0784 0.373846C24.8364 0.359842 24.6274 0.542655 24.6122 0.784823L24.4941 2.65889C24.4773 2.91084 24.6807 3.12705 24.9331 3.12594V3.12594Z" fill="#0C9869"/>
<path d="M28.4908 1.53007C28.5729 1.59816 28.6724 1.63138 28.7713 1.63138C28.8975 1.63138 29.0228 1.5773 29.1097 1.47265L29.7339 0.720953C29.8889 0.534215 29.8632 0.257183 29.6765 0.102086C29.4898 -0.0528361 29.2127 -0.0272892 29.0576 0.159449L28.4335 0.911265C28.2785 1.09795 28.3041 1.37503 28.4908 1.53007V1.53007Z" fill="#0C9869"/>
<path d="M26.4226 4.02024C26.5046 4.08838 26.6041 4.12155 26.7031 4.12155C26.8292 4.12155 26.9545 4.06746 27.0414 3.96282L27.7718 3.08309C27.9268 2.89635 27.9012 2.61932 27.7144 2.46422C27.5278 2.30918 27.2507 2.33491 27.0956 2.52158L26.3652 3.40137C26.2102 3.58811 26.2358 3.8652 26.4226 4.02024Z" fill="#0C9869"/>
<path d="M27.5814 5.33314C27.6393 5.52246 27.8133 5.64439 28.0016 5.64439C28.0441 5.64439 28.0873 5.63818 28.13 5.62511L29.6646 5.1566C29.8967 5.08576 30.0274 4.84013 29.9565 4.60798C29.8856 4.37584 29.64 4.24517 29.4079 4.31607L27.8734 4.78459C27.6413 4.85537 27.5105 5.10099 27.5814 5.33314Z" fill="#0C9869"/>
<path d="M5.07073 18.859C4.82927 18.8452 4.61979 19.0277 4.6045 19.27L4.48649 21.144C4.46968 21.396 4.67306 21.6122 4.92554 21.6111C5.15563 21.6111 5.34905 21.4321 5.3637 21.1993L5.48171 19.3253C5.49694 19.083 5.31296 18.8743 5.07073 18.859V18.859Z" fill="#0C9869"/>
<path d="M3.55323 17.9639C3.36655 17.8088 3.08946 17.8345 2.93442 18.0212L0.241981 21.2638C0.0869421 21.4505 0.112606 21.7276 0.299344 21.8827C0.381376 21.9508 0.480868 21.984 0.579833 21.984C0.705985 21.984 0.831258 21.9299 0.918153 21.8252L3.61059 18.5827C3.76563 18.396 3.73997 18.1189 3.55323 17.9639Z" fill="#0C9869"/>
<path d="M0.567819 17.6681L2.10233 17.1996C2.33448 17.1287 2.4652 16.8831 2.3943 16.651C2.3234 16.4188 2.07778 16.2881 1.84569 16.359L0.311178 16.8276C0.0790298 16.8984 -0.0516928 17.144 0.0192056 17.3762C0.0770376 17.5655 0.25112 17.6874 0.439381 17.6874C0.481862 17.6874 0.525104 17.6811 0.567819 17.6681V17.6681Z" fill="#0C9869"/>
<path d="M27.9591 20.3093C27.5218 20.3093 27.1166 20.448 26.7841 20.6831C26.6678 19.6393 25.7699 18.8244 24.6828 18.8244C24.2081 18.8244 23.7695 18.9797 23.4162 19.2416C23.3461 18.83 23.1534 18.4592 22.877 18.1665H23.2212C25.3501 18.2776 27.6127 16.0065 27.4674 13.8791V8.33925C27.4674 5.9913 25.5652 4.0811 23.2271 4.0811H6.92586C4.58776 4.0811 2.68553 5.9913 2.68553 8.33925V13.8801C2.54379 16.0188 4.80807 18.2755 6.93172 18.1664H8.06867C8.31136 18.1664 8.50812 17.9697 8.50812 17.727C8.50812 17.4842 8.31136 17.2875 8.06867 17.2875H6.93641C5.2317 17.3557 3.46341 15.5757 3.56437 13.879V8.33919C3.56437 6.47587 5.07227 4.95994 6.92581 4.95994H23.227C25.0805 4.95994 26.5884 6.47587 26.5884 8.33919V13.878C26.6891 15.5848 24.9124 17.3562 23.2164 17.2874H20.1543V16.1192H22.6271C24.019 16.221 25.4541 14.7679 25.369 13.4052V8.92442C25.369 7.41928 24.1328 6.19468 22.6133 6.19468H10.1729C9.93017 6.19468 9.73342 6.39138 9.73342 6.63413C9.73342 6.87688 9.93017 7.07358 10.1729 7.07358H22.6133C23.6482 7.07358 24.4901 7.90384 24.4901 8.92442V13.4029C24.5402 14.3397 23.5695 15.3062 22.6309 15.2404H20.1543V13.2822C20.1543 12.1306 19.2058 11.1936 18.04 11.1936C16.8741 11.1936 15.9256 12.1306 15.9256 13.2822V15.2561H7.42268C6.3878 15.2561 5.54593 14.4259 5.54593 13.4053V8.92442C5.54593 7.90384 6.38786 7.07358 7.42268 7.07358H8.06966C8.31236 7.07358 8.50911 6.87688 8.50911 6.63413C8.50911 6.39138 8.31236 6.19468 8.06966 6.19468H7.42268C5.90318 6.19468 4.66704 7.41922 4.66704 8.92442V13.4053C4.66704 14.9105 5.90324 16.1351 7.42268 16.1351H15.9256V17.2876H10.1194C9.87674 17.2876 9.67998 17.4843 9.67998 17.7271C9.67998 17.9698 9.87674 18.1665 10.1194 18.1665H15.9256V24.2034L14.2655 22.5689C13.4425 21.7585 12.1033 21.7585 11.2801 22.5689C10.4587 23.3449 10.4563 24.7438 11.275 25.5224L14.6921 29.1067C15.1988 29.6582 15.8743 29.9806 16.6072 29.9999H23.9941C24.2368 29.9999 24.4336 29.8032 24.4336 29.5605C24.4336 29.3177 24.2368 29.121 23.9941 29.121H16.6152C16.1312 29.1321 15.5458 28.7765 15.3312 28.5034L11.9066 24.9111C11.4222 24.4624 11.4166 23.6489 11.8969 23.1951C12.3799 22.7195 13.1659 22.7195 13.6489 23.1951L16.0567 25.5659C16.183 25.6902 16.3714 25.7265 16.5347 25.6581C16.6981 25.5896 16.8045 25.4298 16.8045 25.2527C16.8045 22.4033 16.8049 16.065 16.8045 13.2822C16.8045 12.6151 17.3587 12.0725 18.04 12.0725C18.7212 12.0725 19.2754 12.6152 19.2754 13.2822V22.6495C19.2754 22.8923 19.4722 23.089 19.7149 23.089C19.9576 23.089 20.1543 22.8923 20.1543 22.6495V19.2241C20.3157 18.7246 20.7916 18.3796 21.3311 18.3796C22.0123 18.3796 22.5666 18.9223 22.5666 19.5899L22.5684 20.9135V20.914V20.9144L22.5742 22.651C22.5751 22.8932 22.7716 23.089 23.0137 23.089H23.0152C23.2579 23.0882 23.454 22.8908 23.4532 22.6481L23.4473 20.9129C23.4474 20.2459 24.0016 19.7032 24.6828 19.7032C25.3641 19.7032 25.9183 20.2459 25.9183 20.913V22.3501V22.6596C25.9183 22.9024 26.1151 23.0991 26.3578 23.0991C26.6005 23.0991 26.7972 22.9024 26.7972 22.6596V22.3501C26.7972 21.7094 27.3185 21.1881 27.9591 21.1881C28.5998 21.1881 29.1211 21.7094 29.1211 22.3501C29.1215 23.422 29.1205 26.8051 29.1211 27.9112C29.1211 28.5783 28.5668 29.1209 27.8856 29.1209H26.0982C25.8555 29.1209 25.6587 29.3176 25.6587 29.5603C25.6587 29.8031 25.8555 29.9998 26.0982 29.9998H27.8856C29.0514 29.9998 30 29.0628 29.9999 27.9075C29.9994 26.7953 30.0003 23.4223 29.9999 22.35C29.9999 21.2249 29.0844 20.3093 27.9591 20.3093V20.3093Z" fill="#0C9869"/>
</g>
<defs>
<clipPath id="clip0">
<rect width="30" height="30" fill="white"/>
</clipPath>
</defs>
</svg>
