<svg width="39" height="40" viewBox="0 0 39 40" fill="none" xmlns="http://www.w3.org/2000/svg">
<path d="M36.1463 3.35367H2.85366C1.80297 3.35367 0.951218 4.20542 0.951218 5.25611V36.6464C0.951218 37.697 1.80297 38.5488 2.85366 38.5488H36.1463C37.197 38.5488 38.0488 37.697 38.0488 36.6464V5.25611C38.0488 4.20542 37.197 3.35367 36.1463 3.35367Z" stroke="#0C9869" stroke-width="1.90244"/>
<path d="M1.90244 10.6876H36.1463" stroke="#0C9869" stroke-width="1.90244" stroke-linecap="square"/>
<path d="M30.439 5.97903V2.17415V5.97903ZM8.56097 5.97903V2.17415V5.97903Z" stroke="#0C9869" stroke-width="1.90244" stroke-linecap="round" stroke-linejoin="round"/>
<path d="M9.5122 15.4446H8.56098C8.03563 15.4446 7.60976 15.8705 7.60976 16.3958V17.347C7.60976 17.8724 8.03563 18.2983 8.56098 18.2983H9.5122C10.0375 18.2983 10.4634 17.8724 10.4634 17.347V16.3958C10.4634 15.8705 10.0375 15.4446 9.5122 15.4446Z" fill="#0C9869"/>
<path d="M19.9756 15.4446H19.0244C18.499 15.4446 18.0732 15.8705 18.0732 16.3958V17.347C18.0732 17.8724 18.499 18.2983 19.0244 18.2983H19.9756C20.5009 18.2983 20.9268 17.8724 20.9268 17.347V16.3958C20.9268 15.8705 20.5009 15.4446 19.9756 15.4446Z" fill="#0C9869"/>
<path d="M9.5122 30.6641H8.56098C8.03563 30.6641 7.60976 31.09 7.60976 31.6153V32.5666C7.60976 33.0919 8.03563 33.5178 8.56098 33.5178H9.5122C10.0375 33.5178 10.4634 33.0919 10.4634 32.5666V31.6153C10.4634 31.09 10.0375 30.6641 9.5122 30.6641Z" fill="#0C9869"/>
<path d="M19.9756 30.6641H19.0244C18.499 30.6641 18.0732 31.09 18.0732 31.6153V32.5666C18.0732 33.0919 18.499 33.5178 19.0244 33.5178H19.9756C20.5009 33.5178 20.9268 33.0919 20.9268 32.5666V31.6153C20.9268 31.09 20.5009 30.6641 19.9756 30.6641Z" fill="#0C9869"/>
<path d="M9.5122 23.0544H8.56098C8.03563 23.0544 7.60976 23.4802 7.60976 24.0056V24.9568C7.60976 25.4822 8.03563 25.908 8.56098 25.908H9.5122C10.0375 25.908 10.4634 25.4822 10.4634 24.9568V24.0056C10.4634 23.4802 10.0375 23.0544 9.5122 23.0544Z" fill="#0C9869"/>
<path d="M22.8293 24.4812C22.8293 22.6425 21.3387 21.1519 19.5 21.1519C17.6613 21.1519 16.1707 22.6425 16.1707 24.4812C16.1707 26.3199 17.6613 27.8105 19.5 27.8105C21.3387 27.8105 22.8293 26.3199 22.8293 24.4812Z" fill="#0C9869"/>
<path d="M30.439 15.4446H29.4878C28.9625 15.4446 28.5366 15.8705 28.5366 16.3958V17.347C28.5366 17.8724 28.9625 18.2983 29.4878 18.2983H30.439C30.9644 18.2983 31.3902 17.8724 31.3902 17.347V16.3958C31.3902 15.8705 30.9644 15.4446 30.439 15.4446Z" fill="#0C9869"/>
<path d="M30.439 30.6641H29.4878C28.9625 30.6641 28.5366 31.09 28.5366 31.6153V32.5666C28.5366 33.0919 28.9625 33.5178 29.4878 33.5178H30.439C30.9644 33.5178 31.3902 33.0919 31.3902 32.5666V31.6153C31.3902 31.09 30.9644 30.6641 30.439 30.6641Z" fill="#0C9869"/>
<path d="M30.439 23.0544H29.4878C28.9625 23.0544 28.5366 23.4802 28.5366 24.0056V24.9568C28.5366 25.4822 28.9625 25.908 29.4878 25.908H30.439C30.9644 25.908 31.3902 25.4822 31.3902 24.9568V24.0056C31.3902 23.4802 30.9644 23.0544 30.439 23.0544Z" fill="#0C9869"/>
</svg>
