<svg width="30" height="30" viewBox="0 0 30 30" fill="none" xmlns="http://www.w3.org/2000/svg">
<path d="M24.375 0.9375H5.625C3.03617 0.9375 0.9375 3.03617 0.9375 5.625V24.375C0.9375 26.9638 3.03617 29.0625 5.625 29.0625H24.375C26.9638 29.0625 29.0625 26.9638 29.0625 24.375V5.625C29.0625 3.03617 26.9638 0.9375 24.375 0.9375Z" stroke="#0C9869" stroke-width="0.9375"/>
<path d="M22.5 6.34595H7.5C6.46447 6.34595 5.625 7.18541 5.625 8.22095V22.2591C5.625 23.2946 6.46447 24.1341 7.5 24.1341H22.5C23.5355 24.1341 24.375 23.2946 24.375 22.2591V8.22095C24.375 7.18541 23.5355 6.34595 22.5 6.34595Z" stroke="#0C9869" stroke-width="0.9375"/>
<path d="M6.105 9.84375H23.4141" stroke="#0C9869" stroke-width="0.9375" stroke-linecap="square"/>
<path d="M20.1562 7.67344V5.74969M8.90625 7.67344V5.74969V7.67344Z" stroke="#0C9869" stroke-width="0.9375" stroke-linecap="round" stroke-linejoin="round"/>
<path fill-rule="evenodd" clip-rule="evenodd" d="M12.3188 15.9188H12.6094C12.8222 15.9188 13.0219 15.8972 13.2094 15.8531C13.3969 15.8091 13.5609 15.7388 13.7016 15.6422C13.8422 15.5456 13.9528 15.4191 14.0344 15.2625C14.1159 15.1059 14.1563 14.9184 14.1563 14.7C14.1563 14.5125 14.1216 14.3419 14.0531 14.1891C13.9867 14.0391 13.8892 13.9049 13.7672 13.7953C13.6438 13.685 13.5007 13.5992 13.3453 13.5422C13.1848 13.4826 13.0149 13.4524 12.8438 13.4531C12.5625 13.4531 12.3141 13.5188 12.0984 13.65C11.874 13.7912 11.6937 13.9926 11.5781 14.2313L11.0063 13.9313C11.2125 13.575 11.475 13.3106 11.7938 13.1391C12.1289 12.9634 12.5029 12.8748 12.8813 12.8813C13.1438 12.8813 13.3922 12.9206 13.6266 12.9984C13.8609 13.0763 14.0672 13.1906 14.2453 13.3406C14.4234 13.4906 14.5641 13.6763 14.6672 13.8984C14.7703 14.1206 14.8219 14.3747 14.8219 14.6625C14.8219 15.0563 14.7122 15.3863 14.4938 15.6516C14.2828 15.9122 13.9935 16.0979 13.6688 16.1813V16.2C14.0384 16.2746 14.3739 16.467 14.625 16.7484C14.8809 17.0325 15.0094 17.4 15.0094 17.85C15.0094 18.1688 14.9513 18.4519 14.8359 18.6984C14.7261 18.9385 14.5678 19.1532 14.371 19.3291C14.1742 19.5049 13.943 19.6381 13.6922 19.7203C13.4284 19.8117 13.151 19.8576 12.8719 19.8563C12.3844 19.8563 11.9597 19.7391 11.5969 19.5047C11.2341 19.2703 10.9594 18.9347 10.7719 18.4969L11.4094 18.2625C11.5219 18.5813 11.7094 18.8297 11.9719 19.0078C12.2344 19.1859 12.5344 19.275 12.8719 19.275C13.0594 19.275 13.2422 19.2422 13.4203 19.1766C13.5944 19.1149 13.7543 19.0188 13.8904 18.8939C14.0265 18.7691 14.1361 18.6181 14.2125 18.45C14.2967 18.2614 14.3383 18.0565 14.3344 17.85C14.3344 17.5997 14.2856 17.3888 14.1891 17.2172C14.0952 17.0486 13.9617 16.9054 13.8 16.8C13.6309 16.691 13.4435 16.6132 13.2469 16.5703C13.0377 16.5231 12.8238 16.4995 12.6094 16.5H12.3188V15.9188V15.9188ZM19.1063 19.6875H18.4313V13.8844L17.2313 14.9063L16.8188 14.4375L18.5063 13.05H19.1063V19.6875Z" fill="#0C9869"/>
</svg>
