<svg width="30" height="30" viewBox="0 0 30 30" fill="none" xmlns="http://www.w3.org/2000/svg">
<path d="M28.5938 1.87405H1.40625C0.630937 1.87405 0 2.50499 0 3.2803V27.6572C0 27.9164 0.209531 28.1259 0.46875 28.1259H29.5312C29.7905 28.1259 30 27.9164 30 27.6572V3.2803C30 2.50499 29.3691 1.87405 28.5938 1.87405V1.87405ZM0.9375 4.68655H29.0625V27.1884H0.9375V4.68655ZM1.40625 2.81155H1.88437C1.62562 2.81155 1.41844 3.02109 1.41844 3.2803C1.41844 3.53952 1.63031 3.74905 1.88953 3.74905C2.14828 3.74905 2.35828 3.53952 2.35828 3.2803C2.35828 3.02109 2.14828 2.81155 1.88953 2.81155H3.29016C3.03141 2.81155 2.82422 3.02109 2.82422 3.2803C2.82422 3.53952 3.03609 3.74905 3.29531 3.74905C3.55406 3.74905 3.76406 3.53952 3.76406 3.2803C3.76406 3.02109 3.55406 2.81155 3.29531 2.81155H4.69781C4.43906 2.81155 4.23187 3.02109 4.23187 3.2803C4.23187 3.53952 4.44375 3.74905 4.70297 3.74905C4.96172 3.74905 5.17172 3.53952 5.17172 3.2803C5.17172 3.02109 4.96172 2.81155 4.70297 2.81155H28.5938C28.8525 2.81155 29.0625 3.02155 29.0625 3.2803V3.74905H4.7025H3.29484H1.88906H0.9375V3.2803C0.9375 3.02155 1.1475 2.81155 1.40625 2.81155V2.81155Z" fill="#0C9869"/>
<path d="M3.75 17.3475C2.71594 17.3475 1.875 18.1884 1.875 19.2225C1.875 20.2566 2.71594 21.0975 3.75 21.0975C4.78406 21.0975 5.625 20.2566 5.625 19.2225C5.625 18.1884 4.78406 17.3475 3.75 17.3475ZM3.75 20.16C3.23297 20.16 2.8125 19.7395 2.8125 19.2225C2.8125 18.7055 3.23297 18.285 3.75 18.285C4.26703 18.285 4.6875 18.7055 4.6875 19.2225C4.6875 19.7395 4.26703 20.16 3.75 20.16Z" fill="#0C9869"/>
<path d="M27.6562 13.1292H2.34375C2.08453 13.1292 1.875 13.3387 1.875 13.598V15.9412C1.875 16.2005 2.08453 16.41 2.34375 16.41H27.6562C27.9155 16.41 28.125 16.2005 28.125 15.9412V13.598C28.125 13.3387 27.9155 13.1292 27.6562 13.1292V13.1292ZM25.9186 14.2026L25.7812 14.34L25.6439 14.2026C25.5544 14.1131 25.4372 14.0686 25.32 14.0667H26.243C26.1253 14.0686 26.0081 14.1126 25.9186 14.2026ZM27.1875 15.4725H2.8125V14.0667H25.305C25.1878 14.0686 25.0706 14.1131 24.9811 14.2026C24.7978 14.3859 24.7978 14.6822 24.9811 14.8655L25.4498 15.3342C25.5412 15.4256 25.6612 15.4716 25.7812 15.4716C25.9013 15.4716 26.0213 15.4256 26.1127 15.3342L26.5814 14.8655C26.7647 14.6822 26.7647 14.3859 26.5814 14.2026C26.4919 14.1131 26.3747 14.0686 26.2575 14.0667H27.1875V15.4725Z" fill="#0C9869"/>
<path d="M3.76406 18.7533H3.75937C3.50062 18.7533 3.29343 18.9628 3.29343 19.222C3.29343 19.4812 3.50531 19.6908 3.76452 19.6908C4.02327 19.6908 4.23327 19.4812 4.23327 19.222C4.23327 18.9628 4.02281 18.7533 3.76406 18.7533Z" fill="#0C9869"/>
<path d="M27.6562 5.62453H2.34375C2.08453 5.62453 1.875 5.83406 1.875 6.09328V8.43655C1.875 8.69577 2.08453 8.9053 2.34375 8.9053H27.6562C27.9155 8.9053 28.125 8.69577 28.125 8.43655V6.09328C28.125 5.83406 27.9155 5.62453 27.6562 5.62453V5.62453ZM27.1875 7.9678H2.8125V6.56203H27.1875V7.9678Z" fill="#0C9869"/>
<path d="M27.6562 9.375H2.34375C2.08453 9.375 1.875 9.58453 1.875 9.84375V12.187C1.875 12.4463 2.08453 12.6558 2.34375 12.6558H27.6562C27.9155 12.6558 28.125 12.4463 28.125 12.187V9.84375C28.125 9.58453 27.9155 9.375 27.6562 9.375ZM27.1875 11.7183H2.8125V10.3125H27.1875V11.7183Z" fill="#0C9869"/>
<path d="M7.03125 18.7533H13.59C13.8492 18.7533 14.0588 18.5437 14.0588 18.2845C14.0588 18.0253 13.8492 17.8158 13.59 17.8158H7.03125C6.77203 17.8158 6.5625 18.0253 6.5625 18.2845C6.5625 18.5437 6.77203 18.7533 7.03125 18.7533Z" fill="#0C9869"/>
<path d="M10.7742 19.6908C10.7742 19.4316 10.5647 19.222 10.3055 19.222H7.03125C6.77203 19.222 6.5625 19.4316 6.5625 19.6908C6.5625 19.95 6.77203 20.1595 7.03125 20.1595H10.3055C10.5647 20.1595 10.7742 19.95 10.7742 19.6908Z" fill="#0C9869"/>
<path d="M19.6894 19.2225C19.6894 18.1884 18.8484 17.3475 17.8144 17.3475C16.7803 17.3475 15.9394 18.1884 15.9394 19.2225C15.9394 20.2566 16.7803 21.0975 17.8144 21.0975C18.8484 21.0975 19.6894 20.2566 19.6894 19.2225ZM16.8769 19.2225C16.8769 18.7055 17.2973 18.285 17.8144 18.285C18.3314 18.285 18.7519 18.7055 18.7519 19.2225C18.7519 19.7395 18.3314 20.16 17.8144 20.16C17.2973 20.16 16.8769 19.7391 16.8769 19.2225Z" fill="#0C9869"/>
<path d="M27.6544 17.8158H21.0956C20.8364 17.8158 20.6269 18.0253 20.6269 18.2845C20.6269 18.5437 20.8364 18.7533 21.0956 18.7533H27.6544C27.9136 18.7533 28.1231 18.5437 28.1231 18.2845C28.1231 18.0253 27.9136 17.8158 27.6544 17.8158V17.8158Z" fill="#0C9869"/>
<path d="M24.3698 19.222H21.0956C20.8364 19.222 20.6269 19.4316 20.6269 19.6908C20.6269 19.95 20.8364 20.1595 21.0956 20.1595H24.3698C24.6291 20.1595 24.8386 19.95 24.8386 19.6908C24.8386 19.4316 24.6291 19.222 24.3698 19.222Z" fill="#0C9869"/>
<path d="M20.1572 22.5005C20.1567 22.5005 20.1567 22.5005 20.1563 22.5005H9.84375C9.84328 22.5005 9.84281 22.5009 9.84234 22.5009C8.81016 22.5023 7.97062 23.3423 7.97062 24.375C7.97062 25.4081 8.81016 26.2481 9.84234 26.2495C9.84281 26.2495 9.84328 26.25 9.84375 26.25H20.1563H20.1572C21.1898 26.2486 22.0298 25.4086 22.0298 24.3755C22.0298 23.3419 21.1898 22.5019 20.1572 22.5005V22.5005ZM20.1553 25.3125H9.84516C9.32813 25.3125 8.90812 24.892 8.90812 24.375C8.90812 23.858 9.32813 23.438 9.84516 23.438H20.1553C20.6723 23.438 21.0923 23.8584 21.0923 24.3755C21.0923 24.8925 20.6723 25.3125 20.1553 25.3125Z" fill="#0C9869"/>
<path d="M18.2812 23.9062H11.7188C11.4595 23.9062 11.25 24.1158 11.25 24.375C11.25 24.6342 11.4595 24.8438 11.7188 24.8438H18.2812C18.5405 24.8438 18.75 24.6342 18.75 24.375C18.75 24.1158 18.5405 23.9062 18.2812 23.9062Z" fill="#0C9869"/>
</svg>
