<svg width="30" height="30" viewBox="0 0 30 30" fill="none" xmlns="http://www.w3.org/2000/svg">
<path d="M24.375 0.9375H5.625C3.03617 0.9375 0.9375 3.03617 0.9375 5.625V24.375C0.9375 26.9638 3.03617 29.0625 5.625 29.0625H24.375C26.9638 29.0625 29.0625 26.9638 29.0625 24.375V5.625C29.0625 3.03617 26.9638 0.9375 24.375 0.9375Z" stroke="#0C9869" stroke-width="0.9375"/>
<path fill-rule="evenodd" clip-rule="evenodd" d="M6.5625 14.5425C6.8625 14.5425 7.12219 14.4375 7.3425 14.2275C7.56281 14.0175 7.6725 13.6725 7.6725 13.1925V10.3725C7.6725 10.0322 7.71938 9.7397 7.815 9.49501C7.90969 9.25032 8.04 9.04782 8.205 8.88751C8.37 8.72813 8.56031 8.61282 8.775 8.54251C8.99053 8.47234 9.21584 8.4369 9.4425 8.43751H10.4625V9.47251H9.6975C9.55593 9.46532 9.41529 9.49918 9.2925 9.57001C9.19502 9.63217 9.11704 9.72055 9.0675 9.82501C9.01781 9.93001 8.98313 10.0453 8.9625 10.17C8.94281 10.2947 8.9325 10.4231 8.9325 10.5525V13.2975C8.9325 13.6275 8.88 13.9022 8.775 14.1225C8.60517 14.497 8.30352 14.796 7.9275 14.9625C7.76812 15.0328 7.63688 15.0722 7.5375 15.0825V15.1125C7.85575 15.1568 8.1535 15.2952 8.3925 15.51C8.5425 15.645 8.67 15.8278 8.775 16.0575C8.88 16.2872 8.9325 16.5825 8.9325 16.9425V19.6425C8.9325 19.7728 8.94188 19.9003 8.9625 20.025C8.98219 20.1497 9.01781 20.265 9.0675 20.37C9.11704 20.4745 9.19502 20.5628 9.2925 20.625C9.39281 20.6906 9.52688 20.7225 9.6975 20.7225H10.4625V21.7575H9.4425C9.21281 21.7575 8.98969 21.7228 8.775 21.6525C8.56092 21.5831 8.36582 21.465 8.205 21.3075C8.03358 21.1377 7.90058 20.9331 7.815 20.7075C7.72031 20.4675 7.6725 20.1731 7.6725 19.8225V17.0625C7.6725 16.5525 7.56281 16.1906 7.3425 15.975C7.24086 15.8716 7.1194 15.7897 6.98537 15.7343C6.85135 15.6788 6.70752 15.651 6.5625 15.6525V14.5425ZM14.1675 18.5175C14.1675 18.7772 14.0728 19.0078 13.8825 19.2075C13.6922 19.4072 13.4522 19.5075 13.1625 19.5075C12.8822 19.5075 12.645 19.41 12.45 19.215C12.3572 19.1272 12.2834 19.0214 12.2331 18.904C12.1828 18.7866 12.1571 18.6602 12.1575 18.5325C12.1575 18.2625 12.2522 18.03 12.4425 17.835C12.6328 17.64 12.8728 17.5425 13.1625 17.5425C13.4531 17.5425 13.6922 17.6372 13.8825 17.8275C14.0728 18.0178 14.1675 18.2475 14.1675 18.5175V18.5175ZM18.0675 18.5175C18.0675 18.7772 17.9728 19.0078 17.7825 19.2075C17.5922 19.4072 17.3522 19.5075 17.0625 19.5075C16.7822 19.5075 16.545 19.41 16.35 19.215C16.2573 19.1272 16.1835 19.0214 16.1331 18.904C16.0828 18.7866 16.0571 18.6602 16.0575 18.5325C16.0575 18.2625 16.1522 18.03 16.3425 17.835C16.5328 17.64 16.7728 17.5425 17.0625 17.5425C17.3531 17.5425 17.5922 17.6372 17.7825 17.8275C17.9728 18.0178 18.0675 18.2475 18.0675 18.5175V18.5175ZM23.6625 15.6525C23.3625 15.6525 23.1028 15.7603 22.8825 15.975C22.6622 16.1906 22.5525 16.5525 22.5525 17.0625V19.8225C22.5525 20.1722 22.5056 20.4675 22.41 20.7075C22.3153 20.9475 22.185 21.1481 22.02 21.3075C21.855 21.4669 21.6647 21.5822 21.45 21.6525C21.2345 21.7227 21.0092 21.7581 20.7825 21.7575H19.7625V20.7225H20.5425C20.7019 20.7225 20.8331 20.6897 20.9325 20.625C21.03 20.5628 21.108 20.4745 21.1575 20.37C21.2072 20.265 21.2419 20.1497 21.2625 20.025C21.2822 19.9003 21.2925 19.7719 21.2925 19.6425V16.9425C21.2925 16.5825 21.345 16.2872 21.45 16.0575C21.5386 15.8507 21.6688 15.6644 21.8325 15.51C21.9678 15.3842 22.1255 15.285 22.2975 15.2175C22.4569 15.1575 22.5928 15.1228 22.7025 15.1125V15.0825C22.5621 15.0638 22.4254 15.0233 22.2975 14.9625C21.9215 14.796 21.6198 14.497 21.45 14.1225C21.345 13.9022 21.2925 13.6275 21.2925 13.2975V10.5525C21.2925 10.4222 21.2831 10.2947 21.2625 10.17C21.2442 10.0506 21.2088 9.93439 21.1575 9.82501C21.108 9.72055 21.03 9.63217 20.9325 9.57001C20.8147 9.5003 20.6792 9.46642 20.5425 9.47251H19.7625V8.43751H20.7825C21.0122 8.43751 21.2353 8.4722 21.45 8.54251C21.6656 8.61282 21.855 8.72719 22.02 8.88751C22.185 9.04688 22.3153 9.25032 22.41 9.49501C22.5047 9.7397 22.5525 10.0322 22.5525 10.3725V13.1925C22.5525 13.6725 22.6622 14.0175 22.8825 14.2275C23.1028 14.4375 23.3625 14.5425 23.6625 14.5425V15.6525V15.6525Z" fill="#0C9869"/>
</svg>
