<svg width="46" height="26" viewBox="0 0 46 26" fill="none" xmlns="http://www.w3.org/2000/svg">
<path fill-rule="evenodd" clip-rule="evenodd" d="M2.15636 12.22C2.83236 12.22 3.344 11.9693 3.69036 11.466C4.03671 10.9636 4.21036 10.2524 4.21036 9.33401V4.70601C4.21036 4.09965 4.28836 3.58801 4.44436 3.17201C4.60036 2.75601 4.80836 2.42265 5.06836 2.17101C5.32836 1.92029 5.62736 1.73736 5.96536 1.62501C6.3049 1.51208 6.66053 1.45501 7.01836 1.45601H8.65636V2.86001H7.40836C7.09636 2.86001 6.841 2.92501 6.64136 3.05501C6.44171 3.18501 6.29036 3.35401 6.18636 3.56201C6.07852 3.78283 6.00823 4.02008 5.97836 4.26401C5.944 4.52401 5.92636 4.77472 5.92636 5.01801V9.64601C5.92636 10.27 5.83536 10.7946 5.65336 11.219C5.47136 11.6434 5.25407 11.9814 5.00336 12.233C4.78432 12.4616 4.5241 12.6469 4.23636 12.779C3.97636 12.8914 3.76836 12.9564 3.61236 12.974V13.026C3.76836 13.0436 3.97636 13.1086 4.23636 13.221C4.49636 13.3334 4.75171 13.5154 5.00336 13.767C5.25407 14.0177 5.47136 14.3566 5.65336 14.781C5.83536 15.2054 5.92636 15.73 5.92636 16.354V20.982C5.92636 21.2244 5.944 21.476 5.97836 21.736C6.01271 21.996 6.08236 22.23 6.18636 22.438C6.29036 22.646 6.44171 22.815 6.64136 22.945C6.841 23.075 7.09636 23.14 7.40836 23.14H8.65636V24.544H7.01836C6.65436 24.544 6.30336 24.4883 5.96536 24.375C5.62888 24.2633 5.32217 24.0766 5.06836 23.829C4.80836 23.5783 4.60036 23.244 4.44436 22.828C4.28836 22.412 4.21036 21.9004 4.21036 21.294V16.666C4.21036 15.7467 4.03671 15.0364 3.69036 14.534C3.344 14.0316 2.83236 13.78 2.15636 13.78V12.22ZM15.7024 19.24C15.7024 19.604 15.5724 19.929 15.3124 20.215C15.0524 20.501 14.7144 20.644 14.2984 20.644C13.8824 20.644 13.5444 20.501 13.2844 20.215C13.033 19.9526 12.8928 19.6033 12.8928 19.24C12.8928 18.8767 13.033 18.5274 13.2844 18.265C13.5444 17.979 13.8824 17.836 14.2984 17.836C14.7144 17.836 15.0524 17.979 15.3124 18.265C15.5724 18.551 15.7024 18.876 15.7024 19.24ZM24.3604 19.24C24.3604 19.604 24.2304 19.929 23.9704 20.215C23.7104 20.501 23.3724 20.644 22.9564 20.644C22.5404 20.644 22.2024 20.501 21.9424 20.215C21.691 19.9526 21.5508 19.6033 21.5508 19.24C21.5508 18.8767 21.691 18.5274 21.9424 18.265C22.2024 17.979 22.5404 17.836 22.9564 17.836C23.3724 17.836 23.7104 17.979 23.9704 18.265C24.2304 18.551 24.3604 18.876 24.3604 19.24ZM33.0184 19.24C33.0184 19.604 32.8884 19.929 32.6284 20.215C32.3684 20.501 32.0304 20.644 31.6144 20.644C31.1984 20.644 30.8604 20.501 30.6004 20.215C30.349 19.9526 30.2088 19.6033 30.2088 19.24C30.2088 18.8767 30.349 18.5274 30.6004 18.265C30.8604 17.979 31.1984 17.836 31.6144 17.836C32.0304 17.836 32.3684 17.979 32.6284 18.265C32.8884 18.551 33.0184 18.876 33.0184 19.24ZM43.7564 13.78C43.0804 13.78 42.5687 14.0307 42.2224 14.534C41.876 15.0364 41.7024 15.7476 41.7024 16.666V21.294C41.7024 21.9004 41.6244 22.412 41.4684 22.828C41.3124 23.244 41.1044 23.5774 40.8444 23.829C40.5844 24.0797 40.2854 24.2626 39.9474 24.375C39.6078 24.4879 39.2522 24.545 38.8944 24.544H37.2564V23.14H38.5044C38.8164 23.14 39.0717 23.075 39.2714 22.945C39.471 22.815 39.6224 22.646 39.7264 22.438C39.8304 22.23 39.9 21.996 39.9344 21.736C39.9687 21.476 39.9864 21.2253 39.9864 20.982V16.354C39.9864 15.73 40.0774 15.2054 40.2594 14.781C40.4414 14.3566 40.6586 14.0186 40.9094 13.767C41.1601 13.5163 41.4164 13.3334 41.6764 13.221C41.9364 13.1086 42.1444 13.0436 42.3004 13.026V12.974C42.1444 12.9564 41.9364 12.8914 41.6764 12.779C41.3886 12.6468 41.1284 12.4616 40.9094 12.233C40.6586 11.9823 40.4414 11.6434 40.2594 11.219C40.0774 10.7946 39.9864 10.27 39.9864 9.64601V5.01801C39.9864 4.77565 39.9687 4.52401 39.9344 4.26401C39.9045 4.02008 39.8342 3.78283 39.7264 3.56201C39.6232 3.35502 39.466 3.17982 39.2714 3.05501C39.0717 2.92501 38.8164 2.86001 38.5044 2.86001H37.2564V1.45601H38.8944C39.2584 1.45601 39.6094 1.51172 39.9474 1.62501C40.2854 1.73736 40.5844 1.91936 40.8444 2.17101C41.1044 2.42172 41.3124 2.75601 41.4684 3.17201C41.6244 3.58801 41.7024 4.09965 41.7024 4.70601V9.33401C41.7024 10.2533 41.876 10.9636 42.2224 11.466C42.5687 11.9684 43.0804 12.22 43.7564 12.22V13.78Z" fill="#0C9869"/>
</svg>
