<svg width="30" height="30" viewBox="0 0 30 30" fill="none" xmlns="http://www.w3.org/2000/svg">
<path d="M24.375 0.9375H5.625C3.03617 0.9375 0.9375 3.03617 0.9375 5.625V24.375C0.9375 26.9638 3.03617 29.0625 5.625 29.0625H24.375C26.9638 29.0625 29.0625 26.9638 29.0625 24.375V5.625C29.0625 3.03617 26.9638 0.9375 24.375 0.9375Z" stroke="#0C9869" stroke-width="0.9375"/>
<path fill-rule="evenodd" clip-rule="evenodd" d="M14.9016 24.375C15.3366 24.375 22.3022 17.1319 22.3022 13.0378C22.3022 8.94375 18.9891 5.625 14.9016 5.625C10.8141 5.625 7.5 8.94375 7.5 13.0378C7.5 17.1319 14.4656 24.375 14.9016 24.375ZM14.9016 17.3981C16.0571 17.3971 17.1649 16.9372 17.9814 16.1195C18.7978 15.3018 19.2561 14.1933 19.2553 13.0378C19.2561 11.8823 18.7978 10.7738 17.9814 9.9561C17.1649 9.13841 16.0571 8.67849 14.9016 8.6775C13.746 8.67849 12.6382 9.13841 11.8218 9.9561C11.0053 10.7738 10.5471 11.8823 10.5478 13.0378C10.5471 14.1933 11.0053 15.3018 11.8218 16.1195C12.6382 16.9372 13.746 17.3971 14.9016 17.3981V17.3981Z" stroke="#0C9869" stroke-width="0.9375"/>
</svg>
