<svg width="39" height="40" viewBox="0 0 39 40" fill="none" xmlns="http://www.w3.org/2000/svg">
<path d="M9.51218 11.0091V3.55912C9.51218 3.55912 9.83084 2.91229 10.1609 2.66688C10.3987 2.48995 11.2168 2.2921 11.2168 2.2921H36.3318C36.3318 2.2921 36.7608 2.4909 36.8759 2.66688C37.0167 2.88376 37.0976 3.47066 37.0976 3.47066V28.1929C37.0976 28.1929 37.0262 28.7826 36.8759 28.9976C36.7171 29.223 36.1682 29.5122 36.1682 29.5122H30.0167" stroke="#0C9869" stroke-width="1.90244"/>
<path d="M14.2683 4.9812H13.3171C12.7917 4.9812 12.3658 5.40708 12.3658 5.93242V6.88364C12.3658 7.40898 12.7917 7.83486 13.3171 7.83486H14.2683C14.7936 7.83486 15.2195 7.40898 15.2195 6.88364V5.93242C15.2195 5.40708 14.7936 4.9812 14.2683 4.9812Z" fill="#0C9869"/>
<path d="M34.2439 4.9812H33.2927C32.7673 4.9812 32.3415 5.40708 32.3415 5.93242V6.88364C32.3415 7.40898 32.7673 7.83486 33.2927 7.83486H34.2439C34.7692 7.83486 35.1951 7.40898 35.1951 6.88364V5.93242C35.1951 5.40708 34.7692 4.9812 34.2439 4.9812Z" fill="#0C9869"/>
<path d="M34.2439 10.6885H33.2927C32.7673 10.6885 32.3415 11.1144 32.3415 11.6397V12.5909C32.3415 13.1163 32.7673 13.5422 33.2927 13.5422H34.2439C34.7692 13.5422 35.1951 13.1163 35.1951 12.5909V11.6397C35.1951 11.1144 34.7692 10.6885 34.2439 10.6885Z" fill="#0C9869"/>
<path d="M34.2439 16.3958H33.2927C32.7673 16.3958 32.3415 16.8217 32.3415 17.347V18.2983C32.3415 18.8236 32.7673 19.2495 33.2927 19.2495H34.2439C34.7692 19.2495 35.1951 18.8236 35.1951 18.2983V17.347C35.1951 16.8217 34.7692 16.3958 34.2439 16.3958Z" fill="#0C9869"/>
<path d="M34.2439 22.1031H33.2927C32.7673 22.1031 32.3415 22.529 32.3415 23.0544V24.0056C32.3415 24.5309 32.7673 24.9568 33.2927 24.9568H34.2439C34.7692 24.9568 35.1951 24.5309 35.1951 24.0056V23.0544C35.1951 22.529 34.7692 22.1031 34.2439 22.1031Z" fill="#0C9869"/>
<path d="M28.7592 9.91707H2.85368C1.80298 9.91707 0.951233 10.7688 0.951233 11.8195V36.9631C0.951233 38.0138 1.80298 38.8655 2.85368 38.8655H28.7592C29.8099 38.8655 30.6616 38.0138 30.6616 36.9631V11.8195C30.6616 10.7688 29.8099 9.91707 28.7592 9.91707Z" stroke="#0C9869" stroke-width="1.90244"/>
<path d="M19.0244 28.6989L22.8293 24.894L29.4878 30.8391L19.0244 28.6989ZM1.90244 27.7477L11.4146 20.1379L23.7805 37.2599L1.90244 27.7477Z" stroke="#0C9869" stroke-width="1.90244" stroke-linecap="round" stroke-linejoin="round"/>
<path d="M20.4512 20.1379C21.7646 20.1379 22.8293 19.0732 22.8293 17.7599C22.8293 16.4465 21.7646 15.3818 20.4512 15.3818C19.1379 15.3818 18.0732 16.4465 18.0732 17.7599C18.0732 19.0732 19.1379 20.1379 20.4512 20.1379Z" stroke="#0C9869" stroke-width="1.90244"/>
</svg>
