<svg width="30" height="30" viewBox="0 0 30 30" fill="none" xmlns="http://www.w3.org/2000/svg">
<path d="M24.375 0.9375H5.625C3.03617 0.9375 0.9375 3.03617 0.9375 5.625V24.375C0.9375 26.9638 3.03617 29.0625 5.625 29.0625H24.375C26.9638 29.0625 29.0625 26.9638 29.0625 24.375V5.625C29.0625 3.03617 26.9638 0.9375 24.375 0.9375Z" stroke="#0C9869" stroke-width="0.9375"/>
<path d="M22.9659 5.87155H7.5C6.46447 5.87155 5.625 6.71102 5.625 7.74655V22.7203C5.625 23.7558 6.46447 24.5953 7.5 24.5953H22.9659C24.0015 24.5953 24.8409 23.7558 24.8409 22.7203V7.74655C24.8409 6.71102 24.0015 5.87155 22.9659 5.87155Z" stroke="#0C9869" stroke-width="0.9375"/>
<path d="M17.3147 18.0187L19.7756 15.5578L24.0825 19.4034M6.24001 17.4037L12.3928 12.4819L20.3906 23.5556L6.24001 17.4037Z" stroke="#0C9869" stroke-width="0.9375" stroke-linecap="round" stroke-linejoin="round"/>
<path d="M18.2372 12.4819C19.0868 12.4819 19.7756 11.7931 19.7756 10.9434C19.7756 10.0938 19.0868 9.405 18.2372 9.405C17.3875 9.405 16.6987 10.0938 16.6987 10.9434C16.6987 11.7931 17.3875 12.4819 18.2372 12.4819Z" stroke="#0C9869" stroke-width="0.9375"/>
</svg>
