<svg width="35" height="30" viewBox="0 0 35 30" fill="none" xmlns="http://www.w3.org/2000/svg">
<g clip-path="url(#clip0)">
<path d="M32.9687 19.2857H28.9062V14.1964C28.9062 14.0491 28.7655 13.9286 28.5937 13.9286H18.9062V10.7143H23.1249C23.4687 10.7143 23.7499 10.4732 23.7499 10.1786V0.535714C23.7499 0.241071 23.4687 0 23.1249 0H11.8749C11.5312 0 11.2499 0.241071 11.2499 0.535714V10.1786C11.2499 10.4732 11.5312 10.7143 11.8749 10.7143H16.0937V13.9286H6.40617C6.2343 13.9286 6.09367 14.0491 6.09367 14.1964V19.2857H2.03117C1.68742 19.2857 1.40617 19.5268 1.40617 19.8214V29.4643C1.40617 29.7589 1.68742 30 2.03117 30H13.2812C13.6249 30 13.9062 29.7589 13.9062 29.4643V19.8214C13.9062 19.5268 13.6249 19.2857 13.2812 19.2857H8.90617V16.3393H26.0937V19.2857H21.7187C21.3749 19.2857 21.0937 19.5268 21.0937 19.8214V29.4643C21.0937 29.7589 21.3749 30 21.7187 30H32.9687C33.3124 30 33.5937 29.7589 33.5937 29.4643V19.8214C33.5937 19.5268 33.3124 19.2857 32.9687 19.2857ZM10.9374 21.8304V27.4554H4.37492V21.8304H10.9374ZM14.2187 8.16964V2.54464H20.7812V8.16964H14.2187ZM30.6249 27.4554H24.0624V21.8304H30.6249V27.4554Z" fill="#0C9869"/>
</g>
<defs>
<clipPath id="clip0">
<rect width="35" height="30" fill="white"/>
</clipPath>
</defs>
</svg>
