<?xml version="1.0" encoding="utf-8"?>
<!-- Generator: Adobe Illustrator 24.3.0, SVG Export Plug-In . SVG Version: 6.00 Build 0)  -->
<svg version="1.1" id="Capa_1" xmlns="http://www.w3.org/2000/svg" xmlns:xlink="http://www.w3.org/1999/xlink" x="0px" y="0px"
	 viewBox="0 0 2502 512" style="enable-background:new 0 0 2502 512;" xml:space="preserve">
<style type="text/css">
	.st0{fill:#407BFF;}
</style>
<g>
	<path class="st0" d="M164,329.4V376c0,74.4,60.6,136,135,136s135-61.6,135-136v-16.5c34.2-7,60-37.3,60-73.5c0-41.4-33.6-75-75-75
		s-75,33.6-75,75c0,36.2,25.8,66.5,60,73.5V376c0,57.9-47.1,106-105,106s-105-48.1-105-106v-46.6c61.2-11.2,131.9-87.2,144.1-159.6
		c8-47.5-11.8-85.5-54.1-104.5V45c0-24.8-20.2-45-45-45s-45,20.2-45,45s20.2,45,45,45h26.6c34.5,12.8,49,38.6,42.9,74.9
		C298,227.2,227.8,301,179,301c-54.6,0-130.6-86.8-131-151c-0.2-28.6,14.8-49.2,44-60h27c24.8,0,45-20.2,45-45S143.8,0,119,0
		S74,20.2,74,45v20.2C37.9,81.3,17.9,111.6,18,150C18.2,225.2,96.1,316.8,164,329.4L164,329.4z M404,271h30v30h-30V271z"/>
</g>
<g>
	<path class="st0" d="M798.2,143.7v205.1h-41.1l-93-140.5v140.5H623V143.7h41.1l93,140.8V143.7H798.2z"/>
	<path class="st0" d="M909.6,351.4c-47.2,0-81.6-32.9-81.6-83.9c0-51.3,33.4-83.9,81.6-83.9c46.9,0,80.1,32,80.1,80.4
		c0,5.3-0.3,10.6-1.2,15.8H869.7c2.1,24.1,18.5,37.6,39,37.6c17.6,0,27.3-8.8,32.6-19.7h44.3C976.8,327.7,949.8,351.4,909.6,351.4z
		 M870,252.3h77.2c-0.6-21.4-17.6-34.9-38.7-34.9C888.8,217.4,873.3,230,870,252.3z"/>
	<path class="st0" d="M1026.1,220h-19.4v-33.7h19.4v-40.2h41.4v40.2h36.4V220h-36.4v78.6c0,10.9,4.4,15.6,17.3,15.6h19.1v34.6H1078
		c-31.1,0-51.9-13.2-51.9-50.5V220z"/>
	<path class="st0" d="M1139.9,220h-19.4v-33.7h19.4v-40.2h41.4v40.2h36.4V220h-36.4v78.6c0,10.9,4.4,15.6,17.3,15.6h19.1v34.6h-25.8
		c-31.1,0-51.9-13.2-51.9-50.5V220z"/>
	<path d="M1247.3,131.7h41.1v217.1h-41.1V131.7z"/>
	<path d="M1399.9,351.4c-47.2,0-81.6-32.9-81.6-83.9c0-51.3,33.4-83.9,81.6-83.9c46.9,0,80.1,32,80.1,80.4c0,5.3-0.3,10.6-1.2,15.8
		H1360c2.1,24.1,18.5,37.6,39,37.6c17.6,0,27.3-8.8,32.6-19.7h44.3C1467.1,327.7,1440.1,351.4,1399.9,351.4z M1360.3,252.3h77.2
		c-0.6-21.4-17.6-34.9-38.7-34.9C1379,217.4,1363.5,230,1360.3,252.3z"/>
	<path d="M1573.6,183.6c25.5,0,44,11.7,53.7,25.8v-23.2h41.4V350c0,44-27,78.9-80.4,78.9c-45.8,0-77.8-22.9-81.9-60.1h40.8
		c4.1,14.7,19.4,24.4,39.9,24.4c22.6,0,40.2-12.9,40.2-43.1v-25.2c-9.7,14.1-28.2,26.7-53.7,26.7c-41.4,0-74.2-33.7-74.2-84.5
		C1499.3,216.2,1532.2,183.6,1573.6,183.6z M1584.1,219.7c-22,0-42.8,16.4-42.8,47.2c0,30.8,20.8,48.4,42.8,48.4
		c22.6,0,43.1-17,43.1-47.8C1627.3,236.7,1606.7,219.7,1584.1,219.7z"/>
	<path d="M1779.8,351.4c-47.2,0-81.6-32.9-81.6-83.9c0-51.3,33.4-83.9,81.6-83.9c46.9,0,80.1,32,80.1,80.4c0,5.3-0.3,10.6-1.2,15.8
		h-118.8c2.1,24.1,18.5,37.6,39,37.6c17.6,0,27.3-8.8,32.6-19.7h44.3C1847,327.7,1820,351.4,1779.8,351.4z M1740.2,252.3h77.2
		c-0.6-21.4-17.6-34.9-38.7-34.9C1759,217.4,1743.4,230,1740.2,252.3z"/>
	<path d="M1930.9,348.8h-41.1V186.3h41.1v25.2c10.3-16.7,27.3-27.6,49.9-27.6V227h-10.9c-24.4,0-39,9.4-39,40.8V348.8z"/>
	<path d="M2026.5,350.9c-15,0-25.5-10.6-25.5-24.1s10.6-24.1,25.5-24.1c14.4,0,24.9,10.6,24.9,24.1S2040.9,350.9,2026.5,350.9z"/>
	<path d="M2198.5,259c0-26.1-14.4-40.2-36.1-40.2c-22.3,0-36.7,14.1-36.7,40.2v89.8h-41.1V186.3h41.1v20.2
		c10.6-13.8,28.2-22.6,49-22.6c37.8,0,64.8,24.6,64.8,69.5v95.4h-41.1V259z"/>
	<path d="M2350.7,351.4c-46.9,0-82.4-32.9-82.4-83.9c0-51.3,36.7-83.9,83.6-83.9s83.6,32.6,83.6,83.9
		C2435.5,318.6,2398,351.4,2350.7,351.4z M2350.7,315.7c21.7,0,42.5-15.8,42.5-48.1c0-32.6-20.2-48.1-42-48.1
		c-21.7,0-41.4,15.5-41.4,48.1C2310,299.8,2328.7,315.7,2350.7,315.7z"/>
</g>
</svg>
