<svg width="30" height="30" viewBox="0 0 30 30" fill="none" xmlns="http://www.w3.org/2000/svg">
<path d="M24.375 0.9375H5.625C3.03617 0.9375 0.9375 3.03617 0.9375 5.625V24.375C0.9375 26.9638 3.03617 29.0625 5.625 29.0625H24.375C26.9638 29.0625 29.0625 26.9638 29.0625 24.375V5.625C29.0625 3.03617 26.9638 0.9375 24.375 0.9375Z" stroke="#0C9869" stroke-width="0.9375"/>
<path fill-rule="evenodd" clip-rule="evenodd" d="M10.8825 20.265H9.4275V11.415L7.4175 13.095L6.5625 12.09L9.5775 9.645H10.8825V20.265ZM21.9525 20.265H15.0225V18.87L19.2525 14.67C19.5722 14.34 19.8478 13.995 20.0775 13.635C20.3072 13.275 20.4225 12.87 20.4225 12.42C20.4225 12.1397 20.3728 11.8875 20.2725 11.6625C20.1776 11.4448 20.0399 11.2484 19.8675 11.085C19.6945 10.9231 19.4903 10.7981 19.2675 10.7175C19.0321 10.6315 18.7831 10.5884 18.5325 10.59C17.9925 10.59 17.5481 10.7625 17.1975 11.1075C16.8478 11.4525 16.6275 11.895 16.5375 12.435L15.1125 12.195C15.1725 11.7947 15.3 11.4225 15.495 11.0775C15.8874 10.3784 16.5224 9.84737 17.28 9.585C17.6873 9.4426 18.1161 9.37156 18.5475 9.375C18.9881 9.375 19.41 9.44062 19.815 9.57C20.22 9.70031 20.5772 9.88968 20.8875 10.14C21.1969 10.3903 21.4453 10.7053 21.63 11.085C21.8147 11.4647 21.9075 11.9006 21.9075 12.39C21.9075 12.7303 21.8625 13.0453 21.7725 13.335C21.6825 13.6256 21.5597 13.9003 21.405 14.16C21.2503 14.4197 21.0675 14.6672 20.8575 14.9025C20.6475 15.1369 20.4272 15.3703 20.1975 15.6L16.7475 18.96H21.9525V20.265Z" fill="#0C9869"/>
</svg>
