<svg width="44" height="21" viewBox="0 0 44 21" fill="none" xmlns="http://www.w3.org/2000/svg">
<path fill-rule="evenodd" clip-rule="evenodd" d="M8.58191 19.6268H6.74121V3.80191L3.46886 6.58852L2.34399 5.31026L6.94573 1.52661H8.58191V19.6268ZM27.1423 19.6268H15.5612V17.7094L22.9751 10.2188C23.2566 9.93696 23.5253 9.64267 23.7804 9.33678C24.0452 9.02178 24.2789 8.69309 24.4835 8.35252C24.688 8.01196 24.8496 7.64948 24.9692 7.266C25.0879 6.88252 25.1482 6.48626 25.1482 6.07722C25.1482 5.54857 25.0541 5.07196 24.8669 4.64557C24.6881 4.23156 24.4222 3.86097 24.0872 3.55905C23.7508 3.25832 23.3604 3.0241 22.9368 2.86878C22.4992 2.70633 22.0358 2.62406 21.569 2.62591C20.5976 2.62591 19.7795 2.92813 19.1148 3.53348C18.4501 4.13883 18.0237 4.90944 17.8365 5.84713L16.0214 5.48922C16.1401 4.85922 16.3665 4.27031 16.6989 3.72522C17.0233 3.18892 17.4385 2.71313 17.926 2.31913C18.4203 1.92233 18.9777 1.61123 19.5749 1.39878C20.2152 1.1727 20.8901 1.06023 21.569 1.06644C22.3022 1.06644 22.9961 1.17326 23.6526 1.386C24.2841 1.58549 24.8704 1.90686 25.3783 2.33191C25.8813 2.76092 26.2866 3.29267 26.567 3.89139C26.8656 4.51318 27.0144 5.23357 27.0144 6.05165C27.0144 6.63144 26.9332 7.16831 26.7716 7.66226C26.6112 8.15316 26.3968 8.62474 26.1324 9.06835C25.8626 9.51909 25.5502 9.94287 25.1993 10.3338C24.8356 10.7406 24.4605 11.137 24.0744 11.5226L17.5553 17.9906H27.1423V19.6268ZM34.5562 9.34957H35.3487C35.8991 9.35278 36.4481 9.29274 36.9849 9.17061C37.4646 9.06554 37.9201 8.87034 38.327 8.59539C38.7105 8.33061 39.0127 7.98639 39.2346 7.56C39.4565 7.13361 39.567 6.62231 39.567 6.02609C39.567 5.51478 39.4729 5.05005 39.2857 4.63278C39.1045 4.22384 38.8388 3.8579 38.506 3.55905C38.1696 3.25832 37.7792 3.0241 37.3556 2.86878C36.9179 2.70633 36.4546 2.62406 35.9878 2.62591C35.2209 2.62591 34.5434 2.80487 33.9554 3.16278C33.3674 3.5207 32.8944 4.04844 32.5365 4.74783L30.977 3.92974C31.5395 2.95826 32.2553 2.23787 33.1245 1.76948C33.9937 1.30109 34.9826 1.06644 36.0901 1.06644C36.8059 1.06644 37.4834 1.17326 38.1225 1.386C38.7616 1.59874 39.3241 1.91009 39.8098 2.31913C40.3008 2.7351 40.6937 3.25456 40.9603 3.84026C41.2415 4.44561 41.3821 5.13952 41.3821 5.92383C41.3821 6.99757 41.0835 7.896 40.4873 8.62096C39.9121 9.33166 39.1232 9.83815 38.2376 10.0654V10.1165C39.2456 10.32 40.1606 10.8447 40.8452 11.6121C41.5437 12.3882 41.8934 13.3889 41.8934 14.616C41.8934 15.4852 41.7354 16.2567 41.4204 16.9297C41.1209 17.5816 40.6901 18.1647 40.1549 18.6425C39.6137 19.1187 38.9838 19.4836 38.3015 19.7163C37.5821 19.9654 36.8258 20.0907 36.0645 20.087C34.7351 20.087 33.5765 19.7674 32.5876 19.1283C31.5988 18.4891 30.8492 17.5734 30.3379 16.38L32.0763 15.7409C32.3831 16.6101 32.8944 17.2876 33.6103 17.7733C34.3261 18.259 35.1442 18.5019 36.0645 18.5019C36.5758 18.5019 37.0743 18.4124 37.5601 18.2335C38.0318 18.063 38.4659 17.8025 38.8383 17.4665C39.2045 17.1342 39.4985 16.7297 39.7203 16.2522C39.9422 15.7747 40.0527 15.2296 40.0527 14.616C40.0527 13.934 39.9203 13.3587 39.6564 12.8904C39.4005 12.4305 39.0363 12.04 38.5955 11.7527C38.1342 11.4554 37.6233 11.2432 37.0871 11.1264C36.5166 10.9976 35.9335 10.9333 35.3487 10.9346H34.5562V9.34957Z" fill="#0C9869"/>
</svg>
