<svg width="30" height="30" viewBox="0 0 30 30" fill="none" xmlns="http://www.w3.org/2000/svg">
<path d="M7.13333 9.62425H22.9243C23.6108 9.62425 24.1695 9.06555 24.1695 8.37914V3.67676C24.1695 2.99011 23.6108 2.43164 22.9243 2.43164H7.13333C6.44669 2.43164 5.88821 2.99011 5.88821 3.67676V8.37914C5.88821 9.06555 6.44669 9.62425 7.13333 9.62425ZM6.76712 3.67676C6.76712 3.47488 6.93146 3.31055 7.13333 3.31055H22.9243C23.1262 3.31055 23.2906 3.47488 23.2906 3.67676V8.37914C23.2906 8.58101 23.1262 8.74535 22.9243 8.74535H7.13333C6.93146 8.74535 6.76712 8.58101 6.76712 8.37914V3.67676Z" fill="#0C9869"/>
<path d="M20.5456 7.64145C20.5456 7.4144 20.3643 7.23038 20.1405 7.23038C19.9166 7.23038 19.7353 7.4144 19.7353 7.64145C19.7353 7.86827 19.9166 8.05229 20.1405 8.05229C20.3643 8.05229 20.5456 7.86827 20.5456 7.64145Z" fill="#0C9869"/>
<path d="M19.6392 4.79989C20.0823 4.52088 20.8871 4.65203 20.8871 5.16976C20.8871 5.48974 20.6701 5.63325 20.1512 5.69321C19.9075 5.72137 19.7816 5.84542 19.791 6.0798L19.8104 6.57212C19.8177 6.75156 19.9651 6.89484 20.1462 6.89484C20.3226 6.89484 20.47 6.75912 20.481 6.58631L20.4987 6.30776C21.1214 6.20705 21.5815 5.83489 21.5815 5.16976C21.5815 3.64106 19.1393 3.83195 19.1393 4.52271C19.1393 4.78158 19.4252 4.9347 19.6392 4.79989Z" fill="#0C9869"/>
<path d="M8.47595 5.40756H17.1185C17.3614 5.40756 17.558 5.21095 17.558 4.96811C17.558 4.72549 17.3614 4.52866 17.1185 4.52866H8.47595C8.23311 4.52866 8.0365 4.72549 8.0365 4.96811C8.0365 5.21095 8.23311 5.40756 8.47595 5.40756Z" fill="#0C9869"/>
<path d="M8.47595 7.52701H17.1185C17.3614 7.52701 17.558 7.3304 17.558 7.08755C17.558 6.84471 17.3614 6.6481 17.1185 6.6481H8.47595C8.23311 6.6481 8.0365 6.84471 8.0365 7.08755C8.0365 7.3304 8.23311 7.52701 8.47595 7.52701Z" fill="#0C9869"/>
<path d="M5.88821 17.3511C5.88821 18.0377 6.44669 18.5962 7.13333 18.5962H22.9243C23.6108 18.5962 24.1695 18.0377 24.1695 17.3511V12.6489C24.1695 11.9623 23.6108 11.4038 22.9243 11.4038H7.13333C6.44669 11.4038 5.88821 11.9623 5.88821 12.6489V17.3511ZM6.76712 12.6489C6.76712 12.4471 6.93146 12.2827 7.13333 12.2827H22.9243C23.1262 12.2827 23.2906 12.4471 23.2906 12.6489V17.3511C23.2906 17.5529 23.1262 17.7173 22.9243 17.7173H7.13333C6.93146 17.7173 6.76712 17.5529 6.76712 17.3511V12.6489Z" fill="#0C9869"/>
<path d="M20.5456 16.6134C20.5456 16.3866 20.3643 16.2025 20.1405 16.2025C19.9166 16.2025 19.7353 16.3866 19.7353 16.6134C19.7353 16.8404 19.9166 17.0245 20.1405 17.0245C20.3643 17.0245 20.5456 16.8404 20.5456 16.6134Z" fill="#0C9869"/>
<path d="M19.6392 13.772C20.0823 13.493 20.8871 13.6242 20.8871 14.1419C20.8871 14.4619 20.6701 14.6054 20.1512 14.6654C19.9075 14.6935 19.7816 14.8173 19.791 15.0519L19.8104 15.5443C19.8177 15.7237 19.9651 15.8668 20.1462 15.8668C20.3226 15.8668 20.47 15.7313 20.481 15.5582L20.4987 15.2799C21.1214 15.1792 21.5815 14.8068 21.5815 14.1417C21.5815 12.613 19.1393 12.8039 19.1393 13.4946C19.1393 13.7535 19.4252 13.9069 19.6392 13.772V13.772Z" fill="#0C9869"/>
<path d="M8.47595 14.3797H17.1185C17.3614 14.3797 17.558 14.1831 17.558 13.9403C17.558 13.6977 17.3614 13.5008 17.1185 13.5008H8.47595C8.23311 13.5008 8.0365 13.6977 8.0365 13.9403C8.0365 14.1831 8.23311 14.3797 8.47595 14.3797Z" fill="#0C9869"/>
<path d="M8.47595 16.4992H17.1185C17.3614 16.4992 17.558 16.3023 17.558 16.0597C17.558 15.8169 17.3614 15.6203 17.1185 15.6203H8.47595C8.23311 15.6203 8.0365 15.8169 8.0365 16.0597C8.0365 16.3023 8.23311 16.4992 8.47595 16.4992Z" fill="#0C9869"/>
<path d="M21.5815 23.1139C21.5815 21.9587 20.1045 21.6827 19.2931 22.1894C19.0171 22.3618 19.1373 22.7939 19.4662 22.7939C19.5298 22.7939 19.5891 22.7758 19.6392 22.7442C20.0823 22.4652 20.8871 22.5964 20.8871 23.1141C20.8871 23.4341 20.6701 23.5776 20.1512 23.6373C19.9075 23.6655 19.7816 23.7895 19.791 24.0241L19.8104 24.5165C19.8177 24.6957 19.9651 24.8389 20.1462 24.8389C20.3226 24.8389 20.47 24.7034 20.481 24.5304L20.4987 24.2519C21.1217 24.1514 21.5815 23.779 21.5815 23.1139V23.1139Z" fill="#0C9869"/>
<path d="M20.5456 25.5856C20.5456 25.3587 20.3643 25.1747 20.1405 25.1747C19.9166 25.1747 19.7353 25.3587 19.7353 25.5856C19.7353 25.8126 19.9166 25.9966 20.1405 25.9966C20.3643 25.9966 20.5456 25.8126 20.5456 25.5856Z" fill="#0C9869"/>
<path d="M17.1185 22.473H8.47595C8.23311 22.473 8.0365 22.6696 8.0365 22.9124C8.0365 23.1553 8.23311 23.3519 8.47595 23.3519H17.1185C17.3614 23.3519 17.558 23.1553 17.558 22.9124C17.558 22.6696 17.3614 22.473 17.1185 22.473Z" fill="#0C9869"/>
<path d="M17.1185 24.5924H8.47595C8.23311 24.5924 8.0365 24.789 8.0365 25.0319C8.0365 25.2745 8.23311 25.4713 8.47595 25.4713H17.1185C17.3614 25.4713 17.558 25.2745 17.558 25.0319C17.558 24.789 17.3614 24.5924 17.1185 24.5924Z" fill="#0C9869"/>
<path d="M5.88821 26.3232C5.88821 27.0099 6.44669 27.5684 7.13333 27.5684H22.9243C23.6108 27.5684 24.1695 27.0099 24.1695 26.3232V24.9174C24.1695 24.6746 23.9726 24.478 23.73 24.478C23.4872 24.478 23.2906 24.6746 23.2906 24.9174V26.3232C23.2906 26.5251 23.1262 26.6895 22.9243 26.6895H7.13333C6.93146 26.6895 6.76712 26.5251 6.76712 26.3232V21.6209C6.76712 21.419 6.93146 21.2547 7.13333 21.2547H22.9243C23.1262 21.2547 23.2906 21.419 23.2906 21.6209V23.2768C23.2906 23.5197 23.4872 23.7163 23.73 23.7163C23.9726 23.7163 24.1695 23.5197 24.1695 23.2768V21.6209C24.1695 20.9344 23.6108 20.3757 22.9243 20.3757H7.13333C6.44669 20.3757 5.88821 20.9344 5.88821 21.6209V26.3232Z" fill="#0C9869"/>
<path d="M24.7364 0H5.32104C4.22859 0 3.33984 0.888748 3.33984 1.9812V3.15971C3.33984 3.40233 3.53668 3.59917 3.7793 3.59917C4.02214 3.59917 4.21875 3.40233 4.21875 3.15971V1.9812C4.21875 1.37329 4.71336 0.878906 5.32104 0.878906H24.7364C25.3441 0.878906 25.8387 1.37329 25.8387 1.9812V28.0188C25.8387 28.6267 25.3443 29.1211 24.7364 29.1211H5.32104C4.71336 29.1211 4.21875 28.6267 4.21875 28.0188V4.80034C4.21875 4.5575 4.02214 4.36089 3.7793 4.36089C3.53645 4.36089 3.33984 4.5575 3.33984 4.80034V28.0188C3.33984 29.1113 4.22859 30 5.32104 30H24.7364C25.8289 30 26.7176 29.1113 26.7176 28.0188V1.9812C26.7176 0.888748 25.8289 0 24.7364 0Z" fill="#0C9869"/>
</svg>
