<svg width="30" height="30" viewBox="0 0 30 30" fill="none" xmlns="http://www.w3.org/2000/svg">
<path d="M5.85938 13.8281C2.62848 13.8281 0 11.1996 0 7.96875C0 4.73785 2.62848 2.10938 5.85938 2.10938C9.09027 2.10938 11.7188 4.73785 11.7188 7.96875C11.7188 11.1996 9.09027 13.8281 5.85938 13.8281ZM5.85938 4.45312C3.92075 4.45312 2.34375 6.03012 2.34375 7.96875C2.34375 9.90738 3.92075 11.4844 5.85938 11.4844C7.798 11.4844 9.375 9.90738 9.375 7.96875C9.375 6.03012 7.798 4.45312 5.85938 4.45312ZM30 6.79688H14.0625V9.14062H30V6.79688ZM5.85938 6.79688C5.21324 6.79688 4.6875 7.32262 4.6875 7.96875C4.6875 8.61488 5.21324 9.14062 5.85938 9.14062C6.50551 9.14062 7.03125 8.61488 7.03125 7.96875C7.03125 7.32262 6.50551 6.79688 5.85938 6.79688ZM5.85938 27.8906C2.62848 27.8906 0 25.2621 0 22.0312C0 18.8004 2.62848 16.1719 5.85938 16.1719C9.09027 16.1719 11.7188 18.8004 11.7188 22.0312C11.7188 25.2621 9.09027 27.8906 5.85938 27.8906ZM5.85938 18.5156C3.92075 18.5156 2.34375 20.0926 2.34375 22.0312C2.34375 23.9699 3.92075 25.5469 5.85938 25.5469C7.798 25.5469 9.375 23.9699 9.375 22.0312C9.375 20.0926 7.798 18.5156 5.85938 18.5156ZM30 20.8594H14.0625V23.2031H30V20.8594Z" fill="#0C9869"/>
</svg>
