<svg width="30" height="30" viewBox="0 0 30 30" fill="none" xmlns="http://www.w3.org/2000/svg">
<path d="M24.375 0.9375H5.625C3.03617 0.9375 0.9375 3.03617 0.9375 5.625V24.375C0.9375 26.9638 3.03617 29.0625 5.625 29.0625H24.375C26.9638 29.0625 29.0625 26.9638 29.0625 24.375V5.625C29.0625 3.03617 26.9638 0.9375 24.375 0.9375Z" stroke="#0C9869" stroke-width="0.9375"/>
<path d="M22.5 11.4375H15C13.9645 11.4375 13.125 12.277 13.125 13.3125V21.75C13.125 22.7855 13.9645 23.625 15 23.625H22.5C23.5355 23.625 24.375 22.7855 24.375 21.75V13.3125C24.375 12.277 23.5355 11.4375 22.5 11.4375Z" stroke="#0C9869" stroke-width="0.9375"/>
<path d="M15 5.8125H7.5C6.46447 5.8125 5.625 6.65197 5.625 7.6875V16.125C5.625 17.1605 6.46447 18 7.5 18H15C16.0355 18 16.875 17.1605 16.875 16.125V7.6875C16.875 6.65197 16.0355 5.8125 15 5.8125Z" stroke="#0C9869" stroke-width="0.9375"/>
<path d="M11.25 11.3869L18.2812 16.0744" stroke="#0C9869" stroke-width="0.9375" stroke-linecap="round" stroke-linejoin="round"/>
<path d="M10.0781 11.8556C10.9842 11.8556 11.7188 11.1211 11.7188 10.215C11.7188 9.3089 10.9842 8.57437 10.0781 8.57437C9.17203 8.57437 8.4375 9.3089 8.4375 10.215C8.4375 11.1211 9.17203 11.8556 10.0781 11.8556Z" stroke="#0C9869" stroke-width="0.9375"/>
<path d="M19.9219 18.8869C20.828 18.8869 21.5625 18.1523 21.5625 17.2462C21.5625 16.3402 20.828 15.6056 19.9219 15.6056C19.0158 15.6056 18.2812 16.3402 18.2812 17.2462C18.2812 18.1523 19.0158 18.8869 19.9219 18.8869Z" stroke="#0C9869" stroke-width="0.9375"/>
</svg>
