<svg width="40" height="39" viewBox="0 0 40 39" fill="none" xmlns="http://www.w3.org/2000/svg">
<path fill-rule="evenodd" clip-rule="evenodd" d="M0.975605 3.24365C0.975605 2.1878 1.82885 1.3317 2.8828 1.3317H21.8977C22.9507 1.3317 23.8049 2.18114 23.8049 3.2408V14.2683H19.9981C19.4928 14.2701 19.0088 14.4723 18.6525 14.8306C18.2961 15.1889 18.0965 15.674 18.0976 16.1793V25.6829H2.87329C2.62313 25.6823 2.37556 25.6324 2.14474 25.5359C1.91391 25.4395 1.70437 25.2985 1.5281 25.121C1.35184 24.9435 1.21231 24.733 1.1175 24.5015C1.0227 24.27 0.974479 24.0221 0.975605 23.7719V3.24365Z" stroke="#0C9869" stroke-width="1.90244"/>
<path fill-rule="evenodd" clip-rule="evenodd" d="M16.1951 14.274C16.1951 13.2201 17.0484 12.3659 18.1023 12.3659H37.1172C38.1702 12.3659 39.0244 13.2162 39.0244 14.274V35.5699C39.0245 35.8204 38.9753 36.0686 38.8795 36.3001C38.7837 36.5316 38.6432 36.7419 38.4661 36.9191C38.289 37.0963 38.0787 37.2369 37.8473 37.3328C37.6158 37.4287 37.3677 37.4781 37.1172 37.4781H18.1023C17.8517 37.4783 17.6035 37.4291 17.3719 37.3333C17.1404 37.2375 16.93 37.0969 16.7528 36.9197C16.5757 36.7424 16.4352 36.532 16.3395 36.3003C16.2438 36.0687 16.1947 35.8205 16.1951 35.5699V14.274Z" stroke="#0C9869" stroke-width="1.90244"/>
<path d="M13.3415 12.3659L26.6585 22.1549" stroke="#0C9869" stroke-width="1.90244" stroke-linecap="round" stroke-linejoin="round"/>
<path d="M10.0122 13.5939C11.8509 13.5939 13.3415 12.1033 13.3415 10.2646C13.3415 8.42592 11.8509 6.93536 10.0122 6.93536C8.17349 6.93536 6.68292 8.42592 6.68292 10.2646C6.68292 12.1033 8.17349 13.5939 10.0122 13.5939Z" stroke="#0C9869" stroke-width="1.90244"/>
<path d="M29.9878 27.8622C31.8265 27.8622 33.3171 26.3716 33.3171 24.5329C33.3171 22.6942 31.8265 21.2036 29.9878 21.2036C28.1491 21.2036 26.6585 22.6942 26.6585 24.5329C26.6585 26.3716 28.1491 27.8622 29.9878 27.8622Z" stroke="#0C9869" stroke-width="1.90244"/>
</svg>
