<svg width="30" height="30" viewBox="0 0 30 30" fill="none" xmlns="http://www.w3.org/2000/svg">
<path d="M24.375 0.9375H5.625C3.03617 0.9375 0.9375 3.03617 0.9375 5.625V24.375C0.9375 26.9638 3.03617 29.0625 5.625 29.0625H24.375C26.9638 29.0625 29.0625 26.9638 29.0625 24.375V5.625C29.0625 3.03617 26.9638 0.9375 24.375 0.9375Z" stroke="#0C9869" stroke-width="0.9375"/>
<path fill-rule="evenodd" clip-rule="evenodd" d="M6.32812 23.0353H20.3906C20.7788 23.0353 21.0938 22.6603 21.0938 22.1934C21.0938 21.7294 20.7788 21.3525 20.3906 21.3525H6.32812C5.94 21.3525 5.625 21.7294 5.625 22.1934C5.625 22.6594 5.94 23.0353 6.32812 23.0353ZM6.32812 13.8712H24.6094C24.9975 13.8712 25.3125 13.4953 25.3125 13.0294C25.3125 12.5644 24.9975 12.1875 24.6094 12.1875H6.32812C5.94 12.1875 5.625 12.5644 5.625 13.0294C5.625 13.4953 5.94 13.8712 6.32812 13.8712ZM6.32812 18.5587H24.6094C24.9975 18.5587 25.3125 18.1828 25.3125 17.7169C25.3125 17.2519 24.9975 16.875 24.6094 16.875H6.32812C5.94 16.875 5.625 17.2519 5.625 17.7169C5.625 18.1828 5.94 18.5587 6.32812 18.5587ZM6.32812 9.18375H24.6094C24.9975 9.18375 25.3125 8.80781 25.3125 8.34187C25.3125 7.87687 24.9975 7.5 24.6094 7.5H6.32812C5.94 7.5 5.625 7.87687 5.625 8.34187C5.625 8.80781 5.94 9.18375 6.32812 9.18375Z" fill="#0C9869"/>
</svg>
