<svg width="35" height="44" viewBox="0 0 35 44" fill="none" xmlns="http://www.w3.org/2000/svg">
<path fill-rule="evenodd" clip-rule="evenodd" d="M4.59999 11.013V1.59999H8.01999C8.03313 1.59999 8.04613 1.59741 8.05826 1.59238C8.07039 1.58736 8.08142 1.57999 8.0907 1.5707C8.09999 1.56142 8.10736 1.55039 8.11238 1.53826C8.11741 1.52613 8.11999 1.51313 8.11999 1.49999C8.11999 1.48686 8.11741 1.47386 8.11238 1.46173C8.10736 1.44959 8.09999 1.43857 8.0907 1.42928C8.08142 1.42 8.07039 1.41263 8.05826 1.40761C8.04613 1.40258 8.03313 1.39999 8.01999 1.39999H1.49999C1.47347 1.39999 1.44804 1.41053 1.42928 1.42928C1.41053 1.44804 1.39999 1.47347 1.39999 1.49999C1.39999 1.52652 1.41053 1.55195 1.42928 1.5707C1.44804 1.58946 1.47347 1.59999 1.49999 1.59999H4.39999V11.013C4.39999 11.0395 4.41053 11.065 4.42928 11.0837C4.44804 11.1025 4.47347 11.113 4.49999 11.113C4.52652 11.113 4.55195 11.1025 4.5707 11.0837C4.58946 11.065 4.59999 11.0395 4.59999 11.013ZM3.49999 33.25C3.69891 33.25 3.88967 33.171 4.03032 33.0303C4.17098 32.8897 4.24999 32.6989 4.24999 32.5C4.24999 32.3011 4.17098 32.1103 4.03032 31.9697C3.88967 31.829 3.69891 31.75 3.49999 31.75C3.30108 31.75 3.11032 31.829 2.96966 31.9697C2.82901 32.1103 2.74999 32.3011 2.74999 32.5C2.74999 32.6989 2.82901 32.8897 2.96966 33.0303C3.11032 33.171 3.30108 33.25 3.49999 33.25V33.25ZM3.49999 38.25C3.69891 38.25 3.88967 38.171 4.03032 38.0303C4.17098 37.8897 4.24999 37.6989 4.24999 37.5C4.24999 37.3011 4.17098 37.1103 4.03032 36.9697C3.88967 36.829 3.69891 36.75 3.49999 36.75C3.30108 36.75 3.11032 36.829 2.96966 36.9697C2.82901 37.1103 2.74999 37.3011 2.74999 37.5C2.74999 37.6989 2.82901 37.8897 2.96966 38.0303C3.11032 38.171 3.30108 38.25 3.49999 38.25V38.25ZM3.49999 43.25C3.69891 43.25 3.88967 43.171 4.03032 43.0303C4.17098 42.8897 4.24999 42.6989 4.24999 42.5C4.24999 42.3011 4.17098 42.1103 4.03032 41.9697C3.88967 41.829 3.69891 41.75 3.49999 41.75C3.30108 41.75 3.11032 41.829 2.96966 41.9697C2.82901 42.1103 2.74999 42.3011 2.74999 42.5C2.74999 42.6989 2.82901 42.8897 2.96966 43.0303C3.11032 43.171 3.30108 43.25 3.49999 43.25V43.25ZM9.56799 32.6H33.458C33.4845 32.6 33.5099 32.5895 33.5287 32.5707C33.5475 32.5519 33.558 32.5265 33.558 32.5C33.558 32.4735 33.5475 32.448 33.5287 32.4293C33.5099 32.4105 33.4845 32.4 33.458 32.4H9.56899C9.54247 32.4 9.51704 32.4105 9.49828 32.4293C9.47953 32.448 9.46899 32.4735 9.46899 32.5C9.46899 32.5265 9.47953 32.5519 9.49828 32.5707C9.51704 32.5895 9.54247 32.6 9.56899 32.6H9.56799ZM9.56799 42.6H33.458C33.4845 42.6 33.5099 42.5895 33.5287 42.5707C33.5475 42.5519 33.558 42.5265 33.558 42.5C33.558 42.4735 33.5475 42.448 33.5287 42.4293C33.5099 42.4105 33.4845 42.4 33.458 42.4H9.56899C9.54247 42.4 9.51704 42.4105 9.49828 42.4293C9.47953 42.448 9.46899 42.4735 9.46899 42.5C9.46899 42.5265 9.47953 42.5519 9.49828 42.5707C9.51704 42.5895 9.54247 42.6 9.56899 42.6H9.56799ZM9.56799 37.6H33.458C33.4845 37.6 33.5099 37.5895 33.5287 37.5707C33.5475 37.5519 33.558 37.5265 33.558 37.5C33.558 37.4735 33.5475 37.448 33.5287 37.4293C33.5099 37.4105 33.4845 37.4 33.458 37.4H9.56899C9.54247 37.4 9.51704 37.4105 9.49828 37.4293C9.47953 37.448 9.46899 37.4735 9.46899 37.5C9.46899 37.5265 9.47953 37.5519 9.49828 37.5707C9.51704 37.5895 9.54247 37.6 9.56899 37.6H9.56799ZM12.5 1.59999H33.524C33.5505 1.59999 33.576 1.58946 33.5947 1.5707C33.6135 1.55195 33.624 1.52652 33.624 1.49999C33.624 1.47347 33.6135 1.44804 33.5947 1.42928C33.576 1.41053 33.5505 1.39999 33.524 1.39999H12.5C12.4735 1.39999 12.448 1.41053 12.4293 1.42928C12.4105 1.44804 12.4 1.47347 12.4 1.49999C12.4 1.52652 12.4105 1.55195 12.4293 1.5707C12.448 1.58946 12.4735 1.59999 12.5 1.59999V1.59999ZM12.5 11.6H33.524C33.5505 11.6 33.576 11.5895 33.5947 11.5707C33.6135 11.552 33.624 11.5265 33.624 11.5C33.624 11.4735 33.6135 11.448 33.5947 11.4293C33.576 11.4105 33.5505 11.4 33.524 11.4H12.5C12.4735 11.4 12.448 11.4105 12.4293 11.4293C12.4105 11.448 12.4 11.4735 12.4 11.5C12.4 11.5265 12.4105 11.552 12.4293 11.5707C12.448 11.5895 12.4735 11.6 12.5 11.6V11.6ZM12.5 6.59999H33.524C33.5505 6.59999 33.576 6.58946 33.5947 6.5707C33.6135 6.55195 33.624 6.52652 33.624 6.49999C33.624 6.47347 33.6135 6.44804 33.5947 6.42928C33.576 6.41053 33.5505 6.39999 33.524 6.39999H12.5C12.4735 6.39999 12.448 6.41053 12.4293 6.42928C12.4105 6.44804 12.4 6.47347 12.4 6.49999C12.4 6.52652 12.4105 6.55195 12.4293 6.5707C12.448 6.58946 12.4735 6.59999 12.5 6.59999ZM2.99999 17.75C2.93369 17.75 2.8701 17.7763 2.82322 17.8232C2.77633 17.8701 2.74999 17.9337 2.74999 18V26C2.74999 26.138 2.86199 26.25 2.99999 26.25H34C34.0663 26.25 34.1299 26.2237 34.1768 26.1768C34.2237 26.1299 34.25 26.0663 34.25 26V18C34.25 17.9337 34.2237 17.8701 34.1768 17.8232C34.1299 17.7763 34.0663 17.75 34 17.75H2.99999Z" stroke="#0C9869" stroke-width="1.5"/>
</svg>
