<svg width="30" height="30" viewBox="0 0 30 30" fill="none" xmlns="http://www.w3.org/2000/svg">
<g clip-path="url(#clip0)">
<path d="M29.7321 24.3751H0.267857C0.120536 24.3751 0 24.4957 0 24.643V26.518C0 26.6653 0.120536 26.7858 0.267857 26.7858H29.7321C29.8795 26.7858 30 26.6653 30 26.518V24.643C30 24.4957 29.8795 24.3751 29.7321 24.3751ZM29.7321 3.21442H0.267857C0.120536 3.21442 0 3.33495 0 3.48227V5.35727C0 5.5046 0.120536 5.62513 0.267857 5.62513H29.7321C29.8795 5.62513 30 5.5046 30 5.35727V3.48227C30 3.33495 29.8795 3.21442 29.7321 3.21442ZM28.9286 19.9555C29.2232 19.9555 29.4643 19.7144 29.4643 19.4198V10.5805C29.4643 10.2858 29.2232 10.0448 28.9286 10.0448H11.7857C11.4911 10.0448 11.25 10.2858 11.25 10.5805V19.4198C11.25 19.7144 11.4911 19.9555 11.7857 19.9555H28.9286ZM13.6607 12.4555H27.0536V17.5448H13.6607V12.4555ZM0.535714 19.4867C0.535714 19.6341 0.65625 19.7546 0.803571 19.7546H8.30357C8.45089 19.7546 8.57143 19.6341 8.57143 19.4867V17.6117C8.57143 17.4644 8.45089 17.3439 8.30357 17.3439H0.803571C0.65625 17.3439 0.535714 17.4644 0.535714 17.6117V19.4867ZM0.803571 12.6564H8.30357C8.45089 12.6564 8.57143 12.5358 8.57143 12.3885V10.5135C8.57143 10.3662 8.45089 10.2457 8.30357 10.2457H0.803571C0.65625 10.2457 0.535714 10.3662 0.535714 10.5135V12.3885C0.535714 12.5358 0.65625 12.6564 0.803571 12.6564Z" fill="#0C9869"/>
</g>
<defs>
<clipPath id="clip0">
<rect width="30" height="30" fill="white"/>
</clipPath>
</defs>
</svg>
