<svg width="30" height="30" viewBox="0 0 30 30" fill="none" xmlns="http://www.w3.org/2000/svg">
<path d="M24.375 0.9375H5.625C3.03617 0.9375 0.9375 3.03617 0.9375 5.625V24.375C0.9375 26.9638 3.03617 29.0625 5.625 29.0625H24.375C26.9638 29.0625 29.0625 26.9638 29.0625 24.375V5.625C29.0625 3.03617 26.9638 0.9375 24.375 0.9375Z" stroke="#0C9869" stroke-width="0.9375"/>
<path fill-rule="evenodd" clip-rule="evenodd" d="M7.275 20.715H5.625L10.23 10.095H11.58L16.14 20.715H14.46L13.38 18.105H8.34L7.275 20.715ZM8.865 16.8H12.84L10.86 11.82L8.865 16.8ZM18.825 19.59V20.715H17.46V9.375H18.87V14.67H18.915C19.155 14.3203 19.4897 14.0231 19.92 13.7775C20.3503 13.5328 20.8603 13.41 21.45 13.41C21.9797 13.41 22.4625 13.5047 22.8975 13.695C23.3325 13.8853 23.7075 14.1497 24.0225 14.49C24.3375 14.8303 24.5803 15.2278 24.75 15.6825C24.9197 16.1372 25.005 16.6247 25.005 17.145C25.005 17.6653 24.9206 18.1547 24.75 18.615C24.5803 19.0744 24.3403 19.4747 24.03 19.815C23.7206 20.1553 23.3456 20.4225 22.905 20.6175C22.4361 20.8183 21.9301 20.918 21.42 20.91C20.91 20.91 20.4253 20.7975 19.965 20.5725C19.512 20.3529 19.128 20.013 18.855 19.59H18.825V19.59ZM23.55 17.145C23.55 16.815 23.5003 16.4953 23.4 16.185C23.3047 15.8835 23.1519 15.6034 22.95 15.36C22.7473 15.1179 22.4938 14.9233 22.2075 14.79C21.885 14.6442 21.5339 14.5725 21.18 14.58C20.8507 14.5755 20.5243 14.643 20.2238 14.7777C19.9233 14.9124 19.6558 15.1112 19.44 15.36C19.23 15.6 19.0678 15.8756 18.9525 16.185C18.8372 16.4944 18.78 16.8197 18.78 17.16C18.78 17.5003 18.8372 17.8256 18.9525 18.135C19.0678 18.4444 19.23 18.7172 19.44 18.9525C19.65 19.1869 19.9022 19.3744 20.1975 19.515C20.4928 19.6556 20.82 19.725 21.18 19.725C21.57 19.725 21.9122 19.6528 22.2075 19.5075C22.5028 19.3622 22.7503 19.17 22.95 18.93C23.1515 18.6864 23.3043 18.4063 23.4 18.105C23.5003 17.7956 23.55 17.475 23.55 17.145V17.145Z" fill="#0C9869"/>
</svg>
