<svg width="35" height="32" viewBox="0 0 35 32" fill="none" xmlns="http://www.w3.org/2000/svg">
<path fill-rule="evenodd" clip-rule="evenodd" d="M3.77483 2.82353H1.02942C0.779803 2.82353 0.540411 2.72437 0.363906 2.54787C0.187401 2.37136 0.0882416 2.13197 0.0882416 1.88235C0.0882416 1.63274 0.187401 1.39335 0.363906 1.21684C0.540411 1.04034 0.779803 0.941177 1.02942 0.941177L8.61718 0.941177C8.8668 0.941177 9.10619 1.04034 9.2827 1.21684C9.4592 1.39335 9.55836 1.63274 9.55836 1.88235C9.55836 2.13197 9.4592 2.37136 9.2827 2.54787C9.10619 2.72437 8.8668 2.82353 8.61718 2.82353H5.65718V11.0362C5.65718 11.2859 5.55802 11.5252 5.38152 11.7017C5.20501 11.8783 4.96562 11.9774 4.71601 11.9774C4.46639 11.9774 4.227 11.8783 4.05049 11.7017C3.87399 11.5252 3.77483 11.2859 3.77483 11.0362V2.82353ZM13.292 0.941177C13.0424 0.941177 12.803 1.04034 12.6265 1.21684C12.45 1.39335 12.3508 1.63274 12.3508 1.88235C12.3508 2.13197 12.45 2.37136 12.6265 2.54787C12.803 2.72437 13.0424 2.82353 13.292 2.82353H33.9555C34.2052 2.82353 34.4445 2.72437 34.621 2.54787C34.7976 2.37136 34.8967 2.13197 34.8967 1.88235C34.8967 1.63274 34.7976 1.39335 34.621 1.21684C34.4445 1.04034 34.2052 0.941177 33.9555 0.941177H13.292ZM13.2901 6.58824C13.0405 6.58824 12.8011 6.6874 12.6246 6.8639C12.4481 7.04041 12.3489 7.2798 12.3489 7.52941C12.3489 7.77903 12.4481 8.01842 12.6246 8.19492C12.8011 8.37143 13.0405 8.47059 13.2901 8.47059H33.9555C34.2052 8.47059 34.4445 8.37143 34.621 8.19492C34.7976 8.01842 34.8967 7.77903 34.8967 7.52941C34.8967 7.2798 34.7976 7.04041 34.621 6.8639C34.4445 6.6874 34.2052 6.58824 33.9555 6.58824H13.2901ZM13.2901 12.2353C13.0405 12.2353 12.8011 12.3345 12.6246 12.511C12.4481 12.6875 12.3489 12.9269 12.3489 13.1765C12.3489 13.4261 12.4481 13.6655 12.6246 13.842C12.8011 14.0185 13.0405 14.1176 13.2901 14.1176H33.9555C34.2052 14.1176 34.4445 14.0185 34.621 13.842C34.7976 13.6655 34.8967 13.4261 34.8967 13.1765C34.8967 12.9269 34.7976 12.6875 34.621 12.511C34.4445 12.3345 34.2052 12.2353 33.9555 12.2353H13.2901ZM1.05295 17.8824C0.803332 17.8824 0.56394 17.9815 0.387435 18.158C0.21093 18.3345 0.111771 18.5739 0.111771 18.8235C0.111771 19.0731 0.21093 19.3125 0.387435 19.489C0.56394 19.6655 0.803332 19.7647 1.05295 19.7647H33.9546C34.2042 19.7647 34.4436 19.6655 34.6201 19.489C34.7966 19.3125 34.8958 19.0731 34.8958 18.8235C34.8958 18.5739 34.7966 18.3345 34.6201 18.158C34.4436 17.9815 34.2042 17.8824 33.9546 17.8824H1.05295ZM1.05295 23.5294C0.803332 23.5294 0.56394 23.6286 0.387435 23.8051C0.21093 23.9816 0.111771 24.221 0.111771 24.4706C0.111771 24.7202 0.21093 24.9596 0.387435 25.1361C0.56394 25.3126 0.803332 25.4118 1.05295 25.4118H33.9527C34.2023 25.4118 34.4417 25.3126 34.6182 25.1361C34.7947 24.9596 34.8939 24.7202 34.8939 24.4706C34.8939 24.221 34.7947 23.9816 34.6182 23.8051C34.4417 23.6286 34.2023 23.5294 33.9527 23.5294H1.05295ZM1.05295 29.1765C0.803332 29.1765 0.56394 29.2756 0.387435 29.4521C0.21093 29.6286 0.111771 29.868 0.111771 30.1176C0.111771 30.3673 0.21093 30.6067 0.387435 30.7832C0.56394 30.9597 0.803332 31.0588 1.05295 31.0588H33.9546C34.2042 31.0588 34.4436 30.9597 34.6201 30.7832C34.7966 30.6067 34.8958 30.3673 34.8958 30.1176C34.8958 29.868 34.7966 29.6286 34.6201 29.4521C34.4436 29.2756 34.2042 29.1765 33.9546 29.1765H1.05295Z" fill="#0C9869"/>
</svg>
