<svg width="30" height="30" viewBox="0 0 30 30" fill="none" xmlns="http://www.w3.org/2000/svg">
<path d="M25.9554 7.16859C25.8855 6.95366 25.7494 6.76634 25.5666 6.63344C25.3838 6.50054 25.1636 6.42885 24.9376 6.42864H22.5001V2.67864C22.5001 2.086 22.0213 1.60721 21.4286 1.60721H8.57149C7.97886 1.60721 7.50007 2.086 7.50007 2.67864V6.42864H5.06257C4.83642 6.42834 4.61601 6.49982 4.43309 6.6328C4.25017 6.76578 4.11418 6.95338 4.04471 7.16859L1.60721 14.6652V27.3215C1.60721 27.9141 2.086 28.3929 2.67864 28.3929H27.3215C27.9141 28.3929 28.3929 27.9141 28.3929 27.3215V14.6652L25.9554 7.16859ZM9.91078 4.01792H20.0894V6.42864H9.91078V4.01792ZM25.9822 25.9822H4.01792V15.0469L6.0369 8.83935H23.9632L25.9822 15.0469V25.9822ZM19.6876 17.009H16.0715V13.3929C16.0715 13.2456 15.951 13.1251 15.8036 13.1251H14.1965C14.0492 13.1251 13.9286 13.2456 13.9286 13.3929V17.009H10.3126C10.1652 17.009 10.0447 17.1295 10.0447 17.2769V18.884C10.0447 19.0313 10.1652 19.1519 10.3126 19.1519H13.9286V22.7679C13.9286 22.9152 14.0492 23.0358 14.1965 23.0358H15.8036C15.951 23.0358 16.0715 22.9152 16.0715 22.7679V19.1519H19.6876C19.8349 19.1519 19.9554 19.0313 19.9554 18.884V17.2769C19.9554 17.1295 19.8349 17.009 19.6876 17.009Z" fill="#0C9869"/>
</svg>
